<svg width="580" height="580" viewBox="0 0 580 580" fill="none" xmlns="http://www.w3.org/2000/svg">
<path d="M42.2071 290L288.987 43.2198L535.768 290L288.987 536.78L42.2071 290Z" stroke="#E54760"/>
<path d="M115 115.5H464V464.5H115V115.5Z" stroke="#E54760"/>
<path d="M364.5 442.5C364.5 449.404 358.904 455 352 455C345.096 455 339.5 449.404 339.5 442.5C339.5 435.596 345.096 430 352 430C358.904 430 364.5 435.596 364.5 442.5Z" fill="white"/>
<path d="M364.5 442.5C364.5 449.404 358.904 455 352 455C345.096 455 339.5 449.404 339.5 442.5C339.5 435.596 345.096 430 352 430C358.904 430 364.5 435.596 364.5 442.5Z" fill="url(#paint0_radial_108_318)"/>
<path d="M454.5 351.5C454.5 358.404 448.904 364 442 364C435.096 364 429.5 358.404 429.5 351.5C429.5 344.596 435.096 339 442 339C448.904 339 454.5 344.596 454.5 351.5Z" fill="white"/>
<path d="M454.5 351.5C454.5 358.404 448.904 364 442 364C435.096 364 429.5 358.404 429.5 351.5C429.5 344.596 435.096 339 442 339C448.904 339 454.5 344.596 454.5 351.5Z" fill="url(#paint1_radial_108_318)"/>
<path d="M149.5 137.5C149.5 144.404 143.904 150 137 150C130.096 150 124.5 144.404 124.5 137.5C124.5 130.596 130.096 125 137 125C143.904 125 149.5 130.596 149.5 137.5Z" fill="white"/>
<path d="M149.5 137.5C149.5 144.404 143.904 150 137 150C130.096 150 124.5 144.404 124.5 137.5C124.5 130.596 130.096 125 137 125C143.904 125 149.5 130.596 149.5 137.5Z" fill="url(#paint2_radial_108_318)"/>
<path d="M149.5 442.5C149.5 449.404 143.904 455 137 455C130.096 455 124.5 449.404 124.5 442.5C124.5 435.596 130.096 430 137 430C143.904 430 149.5 435.596 149.5 442.5Z" fill="white"/>
<path d="M149.5 442.5C149.5 449.404 143.904 455 137 455C130.096 455 124.5 449.404 124.5 442.5C124.5 435.596 130.096 430 137 430C143.904 430 149.5 435.596 149.5 442.5Z" fill="url(#paint3_radial_108_318)"/>
<path d="M454.5 442.5C454.5 449.404 448.904 455 442 455C435.096 455 429.5 449.404 429.5 442.5C429.5 435.596 435.096 430 442 430C448.904 430 454.5 435.596 454.5 442.5Z" fill="white"/>
<path d="M454.5 442.5C454.5 449.404 448.904 455 442 455C435.096 455 429.5 449.404 429.5 442.5C429.5 435.596 435.096 430 442 430C448.904 430 454.5 435.596 454.5 442.5Z" fill="url(#paint4_radial_108_318)"/>
<path d="M454.5 137.5C454.5 144.404 448.904 150 442 150C435.096 150 429.5 144.404 429.5 137.5C429.5 130.596 435.096 125 442 125C448.904 125 454.5 130.596 454.5 137.5Z" fill="white"/>
<path d="M454.5 137.5C454.5 144.404 448.904 150 442 150C435.096 150 429.5 144.404 429.5 137.5C429.5 130.596 435.096 125 442 125C448.904 125 454.5 130.596 454.5 137.5Z" fill="url(#paint5_radial_108_318)"/>
<path d="M306.5 75.5C306.5 85.165 298.665 93 289 93C279.335 93 271.5 85.165 271.5 75.5C271.5 65.835 279.335 58 289 58C298.665 58 306.5 65.835 306.5 75.5Z" fill="white"/>
<path d="M306.5 75.5C306.5 85.165 298.665 93 289 93C279.335 93 271.5 85.165 271.5 75.5C271.5 65.835 279.335 58 289 58C298.665 58 306.5 65.835 306.5 75.5Z" fill="url(#paint6_radial_108_318)"/>
<path d="M394.5 376.5C394.5 386.165 386.665 394 377 394C367.335 394 359.5 386.165 359.5 376.5C359.5 366.835 367.335 359 377 359C386.665 359 394.5 366.835 394.5 376.5Z" fill="white"/>
<path d="M394.5 376.5C394.5 386.165 386.665 394 377 394C367.335 394 359.5 386.165 359.5 376.5C359.5 366.835 367.335 359 377 359C386.665 359 394.5 366.835 394.5 376.5Z" fill="url(#paint7_radial_108_318)"/>
<path d="M521.5 290.5C521.5 300.165 513.665 308 504 308C494.335 308 486.5 300.165 486.5 290.5C486.5 280.835 494.335 273 504 273C513.665 273 521.5 280.835 521.5 290.5Z" fill="white"/>
<path d="M521.5 290.5C521.5 300.165 513.665 308 504 308C494.335 308 486.5 300.165 486.5 290.5C486.5 280.835 494.335 273 504 273C513.665 273 521.5 280.835 521.5 290.5Z" fill="url(#paint8_radial_108_318)"/>
<path d="M306.5 504.5C306.5 514.165 298.665 522 289 522C279.335 522 271.5 514.165 271.5 504.5C271.5 494.835 279.335 487 289 487C298.665 487 306.5 494.835 306.5 504.5Z" fill="white"/>
<path d="M306.5 504.5C306.5 514.165 298.665 522 289 522C279.335 522 271.5 514.165 271.5 504.5C271.5 494.835 279.335 487 289 487C298.665 487 306.5 494.835 306.5 504.5Z" fill="url(#paint9_radial_108_318)"/>
<path d="M92.5 290.5C92.5 300.165 84.665 308 75 308C65.335 308 57.5 300.165 57.5 290.5C57.5 280.835 65.335 273 75 273C84.665 273 92.5 280.835 92.5 290.5Z" fill="white"/>
<path d="M92.5 290.5C92.5 300.165 84.665 308 75 308C65.335 308 57.5 300.165 57.5 290.5C57.5 280.835 65.335 273 75 273C84.665 273 92.5 280.835 92.5 290.5Z" fill="url(#paint10_radial_108_318)"/>
<path d="M213.5 290.5C213.5 300.165 205.665 308 196 308C186.335 308 178.5 300.165 178.5 290.5C178.5 280.835 186.335 273 196 273C205.665 273 213.5 280.835 213.5 290.5Z" fill="white"/>
<path d="M213.5 290.5C213.5 300.165 205.665 308 196 308C186.335 308 178.5 300.165 178.5 290.5C178.5 280.835 186.335 273 196 273C205.665 273 213.5 280.835 213.5 290.5Z" fill="url(#paint11_radial_108_318)"/>
<path d="M132.5 290.5C132.5 300.165 124.665 308 115 308C105.335 308 97.5 300.165 97.5 290.5C97.5 280.835 105.335 273 115 273C124.665 273 132.5 280.835 132.5 290.5Z" fill="white"/>
<path d="M132.5 290.5C132.5 300.165 124.665 308 115 308C105.335 308 97.5 300.165 97.5 290.5C97.5 280.835 105.335 273 115 273C124.665 273 132.5 280.835 132.5 290.5Z" fill="url(#paint12_radial_108_318)"/>
<path d="M183.5 412.5C183.5 422.165 175.665 430 166 430C156.335 430 148.5 422.165 148.5 412.5C148.5 402.835 156.335 395 166 395C175.665 395 183.5 402.835 183.5 412.5Z" fill="white"/>
<path d="M183.5 412.5C183.5 422.165 175.665 430 166 430C156.335 430 148.5 422.165 148.5 412.5C148.5 402.835 156.335 395 166 395C175.665 395 183.5 402.835 183.5 412.5Z" fill="url(#paint13_radial_108_318)"/>
<path d="M306.5 464.5C306.5 474.165 298.665 482 289 482C279.335 482 271.5 474.165 271.5 464.5C271.5 454.835 279.335 447 289 447C298.665 447 306.5 454.835 306.5 464.5Z" fill="white"/>
<path d="M306.5 464.5C306.5 474.165 298.665 482 289 482C279.335 482 271.5 474.165 271.5 464.5C271.5 454.835 279.335 447 289 447C298.665 447 306.5 454.835 306.5 464.5Z" fill="url(#paint14_radial_108_318)"/>
<path d="M481.5 290.5C481.5 300.165 473.665 308 464 308C454.335 308 446.5 300.165 446.5 290.5C446.5 280.835 454.335 273 464 273C473.665 273 481.5 280.835 481.5 290.5Z" fill="white"/>
<path d="M481.5 290.5C481.5 300.165 473.665 308 464 308C454.335 308 446.5 300.165 446.5 290.5C446.5 280.835 454.335 273 464 273C473.665 273 481.5 280.835 481.5 290.5Z" fill="url(#paint15_radial_108_318)"/>
<path d="M430.5 412.5C430.5 422.165 422.665 430 413 430C403.335 430 395.5 422.165 395.5 412.5C395.5 402.835 403.335 395 413 395C422.665 395 430.5 402.835 430.5 412.5Z" fill="white"/>
<path d="M430.5 412.5C430.5 422.165 422.665 430 413 430C403.335 430 395.5 422.165 395.5 412.5C395.5 402.835 403.335 395 413 395C422.665 395 430.5 402.835 430.5 412.5Z" fill="url(#paint16_radial_108_318)"/>
<path d="M306.5 115.5C306.5 125.165 298.665 133 289 133C279.335 133 271.5 125.165 271.5 115.5C271.5 105.835 279.335 98 289 98C298.665 98 306.5 105.835 306.5 115.5Z" fill="white"/>
<path d="M306.5 115.5C306.5 125.165 298.665 133 289 133C279.335 133 271.5 125.165 271.5 115.5C271.5 105.835 279.335 98 289 98C298.665 98 306.5 105.835 306.5 115.5Z" fill="url(#paint17_radial_108_318)"/>
<path d="M306.5 197.5C306.5 207.165 298.665 215 289 215C279.335 215 271.5 207.165 271.5 197.5C271.5 187.835 279.335 180 289 180C298.665 180 306.5 187.835 306.5 197.5Z" fill="white"/>
<path d="M306.5 197.5C306.5 207.165 298.665 215 289 215C279.335 215 271.5 207.165 271.5 197.5C271.5 187.835 279.335 180 289 180C298.665 180 306.5 187.835 306.5 197.5Z" fill="url(#paint18_radial_108_318)"/>
<path d="M430.5 166.5C430.5 176.165 422.665 184 413 184C403.335 184 395.5 176.165 395.5 166.5C395.5 156.835 403.335 149 413 149C422.665 149 430.5 156.835 430.5 166.5Z" fill="white"/>
<path d="M430.5 166.5C430.5 176.165 422.665 184 413 184C403.335 184 395.5 176.165 395.5 166.5C395.5 156.835 403.335 149 413 149C422.665 149 430.5 156.835 430.5 166.5Z" fill="url(#paint19_radial_108_318)"/>
<path d="M183.5 166.5C183.5 176.165 175.665 184 166 184C156.335 184 148.5 176.165 148.5 166.5C148.5 156.835 156.335 149 166 149C175.665 149 183.5 156.835 183.5 166.5Z" fill="white"/>
<path d="M183.5 166.5C183.5 176.165 175.665 184 166 184C156.335 184 148.5 176.165 148.5 166.5C148.5 156.835 156.335 149 166 149C175.665 149 183.5 156.835 183.5 166.5Z" fill="url(#paint20_radial_108_318)"/>
<path d="M500.5 100.5C500.5 112.374 490.874 122 479 122C467.126 122 457.5 112.374 457.5 100.5C457.5 88.6259 467.126 79 479 79C490.874 79 500.5 88.6259 500.5 100.5Z" fill="white"/>
<path d="M500.5 100.5C500.5 112.374 490.874 122 479 122C467.126 122 457.5 112.374 457.5 100.5C457.5 88.6259 467.126 79 479 79C490.874 79 500.5 88.6259 500.5 100.5Z" fill="url(#paint21_radial_108_318)"/>
<path d="M500.5 479.5C500.5 491.374 490.874 501 479 501C467.126 501 457.5 491.374 457.5 479.5C457.5 467.626 467.126 458 479 458C490.874 458 500.5 467.626 500.5 479.5Z" fill="white"/>
<path d="M500.5 479.5C500.5 491.374 490.874 501 479 501C467.126 501 457.5 491.374 457.5 479.5C457.5 467.626 467.126 458 479 458C490.874 458 500.5 467.626 500.5 479.5Z" fill="url(#paint22_radial_108_318)"/>
<path d="M121.5 479.5C121.5 491.374 111.874 501 100 501C88.1259 501 78.5 491.374 78.5 479.5C78.5 467.626 88.1259 458 100 458C111.874 458 121.5 467.626 121.5 479.5Z" fill="white"/>
<path d="M121.5 479.5C121.5 491.374 111.874 501 100 501C88.1259 501 78.5 491.374 78.5 479.5C78.5 467.626 88.1259 458 100 458C111.874 458 121.5 467.626 121.5 479.5Z" fill="url(#paint23_radial_108_318)"/>
<path d="M121.5 100.5C121.5 112.374 111.874 122 100 122C88.1259 122 78.5 112.374 78.5 100.5C78.5 88.6259 88.1259 79 100 79C111.874 79 121.5 88.6259 121.5 100.5Z" fill="white"/>
<path d="M121.5 100.5C121.5 112.374 111.874 122 100 122C88.1259 122 78.5 112.374 78.5 100.5C78.5 88.6259 88.1259 79 100 79C111.874 79 121.5 88.6259 121.5 100.5Z" fill="url(#paint24_radial_108_318)"/>
<path d="M310.5 22.5C310.5 34.3741 300.874 44 289 44C277.126 44 267.5 34.3741 267.5 22.5C267.5 10.6259 277.126 1 289 1C300.874 1 310.5 10.6259 310.5 22.5Z" fill="white"/>
<path d="M310.5 22.5C310.5 34.3741 300.874 44 289 44C277.126 44 267.5 34.3741 267.5 22.5C267.5 10.6259 277.126 1 289 1C300.874 1 310.5 10.6259 310.5 22.5Z" fill="url(#paint25_radial_108_318)"/>
<path d="M310.5 557.5C310.5 569.374 300.874 579 289 579C277.126 579 267.5 569.374 267.5 557.5C267.5 545.626 277.126 536 289 536C300.874 536 310.5 545.626 310.5 557.5Z" fill="white"/>
<path d="M310.5 557.5C310.5 569.374 300.874 579 289 579C277.126 579 267.5 569.374 267.5 557.5C267.5 545.626 277.126 536 289 536C300.874 536 310.5 545.626 310.5 557.5Z" fill="url(#paint26_radial_108_318)"/>
<path d="M578.5 290.5C578.5 302.374 568.874 312 557 312C545.126 312 535.5 302.374 535.5 290.5C535.5 278.626 545.126 269 557 269C568.874 269 578.5 278.626 578.5 290.5Z" fill="white"/>
<path d="M578.5 290.5C578.5 302.374 568.874 312 557 312C545.126 312 535.5 302.374 535.5 290.5C535.5 278.626 545.126 269 557 269C568.874 269 578.5 278.626 578.5 290.5Z" fill="url(#paint27_radial_108_318)"/>
<path d="M43.5 290.5C43.5 302.374 33.8741 312 22 312C10.1259 312 0.5 302.374 0.5 290.5C0.5 278.626 10.1259 269 22 269C33.8741 269 43.5 278.626 43.5 290.5Z" fill="white"/>
<path d="M43.5 290.5C43.5 302.374 33.8741 312 22 312C10.1259 312 0.5 302.374 0.5 290.5C0.5 278.626 10.1259 269 22 269C33.8741 269 43.5 278.626 43.5 290.5Z" fill="url(#paint28_radial_108_318)"/>
<path d="M316.5 290.5C316.5 305.688 304.188 318 289 318C273.812 318 261.5 305.688 261.5 290.5C261.5 275.312 273.812 263 289 263C304.188 263 316.5 275.312 316.5 290.5Z" fill="white"/>
<path d="M316.5 290.5C316.5 305.688 304.188 318 289 318C273.812 318 261.5 305.688 261.5 290.5C261.5 275.312 273.812 263 289 263C304.188 263 316.5 275.312 316.5 290.5Z" fill="url(#paint29_radial_108_318)"/>
<defs>
<radialGradient id="paint0_radial_108_318" cx="0" cy="0" r="1" gradientUnits="userSpaceOnUse" gradientTransform="translate(352 442.5) rotate(90) scale(12.5)">
<stop stop-color="#CDCDCD" stop-opacity="0.5"/>
<stop offset="1" stop-color="#CDCDCD"/>
</radialGradient>
<radialGradient id="paint1_radial_108_318" cx="0" cy="0" r="1" gradientUnits="userSpaceOnUse" gradientTransform="translate(442 351.5) rotate(90) scale(12.5)">
<stop stop-color="#CDCDCD" stop-opacity="0.5"/>
<stop offset="1" stop-color="#CDCDCD"/>
</radialGradient>
<radialGradient id="paint2_radial_108_318" cx="0" cy="0" r="1" gradientUnits="userSpaceOnUse" gradientTransform="translate(137 137.5) rotate(90) scale(12.5)">
<stop stop-color="#CDCDCD" stop-opacity="0.5"/>
<stop offset="1" stop-color="#CDCDCD"/>
</radialGradient>
<radialGradient id="paint3_radial_108_318" cx="0" cy="0" r="1" gradientUnits="userSpaceOnUse" gradientTransform="translate(137 442.5) rotate(90) scale(12.5)">
<stop stop-color="#CDCDCD" stop-opacity="0.5"/>
<stop offset="1" stop-color="#CDCDCD"/>
</radialGradient>
<radialGradient id="paint4_radial_108_318" cx="0" cy="0" r="1" gradientUnits="userSpaceOnUse" gradientTransform="translate(442 442.5) rotate(90) scale(12.5)">
<stop stop-color="#CDCDCD" stop-opacity="0.5"/>
<stop offset="1" stop-color="#CDCDCD"/>
</radialGradient>
<radialGradient id="paint5_radial_108_318" cx="0" cy="0" r="1" gradientUnits="userSpaceOnUse" gradientTransform="translate(442 137.5) rotate(90) scale(12.5)">
<stop stop-color="#CDCDCD" stop-opacity="0.5"/>
<stop offset="1" stop-color="#CDCDCD"/>
</radialGradient>
<radialGradient id="paint6_radial_108_318" cx="0" cy="0" r="1" gradientUnits="userSpaceOnUse" gradientTransform="translate(289 75.5) rotate(90) scale(17.5)">
<stop stop-color="#006BD5" stop-opacity="0.5"/>
<stop offset="1" stop-color="#006BD5"/>
</radialGradient>
<radialGradient id="paint7_radial_108_318" cx="0" cy="0" r="1" gradientUnits="userSpaceOnUse" gradientTransform="translate(377 376.5) rotate(90) scale(17.5)">
<stop stop-color="#CDCDCD" stop-opacity="0.5"/>
<stop offset="1" stop-color="#CDCDCD"/>
</radialGradient>
<radialGradient id="paint8_radial_108_318" cx="0" cy="0" r="1" gradientUnits="userSpaceOnUse" gradientTransform="translate(504 290.5) rotate(90) scale(17.5)">
<stop stop-color="#CDCDCD" stop-opacity="0.5"/>
<stop offset="1" stop-color="#CDCDCD"/>
</radialGradient>
<radialGradient id="paint9_radial_108_318" cx="0" cy="0" r="1" gradientUnits="userSpaceOnUse" gradientTransform="translate(289 504.5) rotate(90) scale(17.5)">
<stop stop-color="#CDCDCD" stop-opacity="0.5"/>
<stop offset="1" stop-color="#CDCDCD"/>
</radialGradient>
<radialGradient id="paint10_radial_108_318" cx="0" cy="0" r="1" gradientUnits="userSpaceOnUse" gradientTransform="translate(75 290.5) rotate(90) scale(17.5)">
<stop stop-color="#006BD5" stop-opacity="0.5"/>
<stop offset="1" stop-color="#006BD5"/>
</radialGradient>
<radialGradient id="paint11_radial_108_318" cx="0" cy="0" r="1" gradientUnits="userSpaceOnUse" gradientTransform="translate(196 290.5) rotate(90) scale(17.5)">
<stop stop-color="#00CF5E" stop-opacity="0.5"/>
<stop offset="1" stop-color="#00CF5E"/>
</radialGradient>
<radialGradient id="paint12_radial_108_318" cx="0" cy="0" r="1" gradientUnits="userSpaceOnUse" gradientTransform="translate(115 290.5) rotate(90) scale(17.5)">
<stop stop-color="#439AFE" stop-opacity="0.5"/>
<stop offset="1" stop-color="#439AFE"/>
</radialGradient>
<radialGradient id="paint13_radial_108_318" cx="0" cy="0" r="1" gradientUnits="userSpaceOnUse" gradientTransform="translate(166 412.5) rotate(90) scale(17.5)">
<stop stop-color="#CDCDCD" stop-opacity="0.5"/>
<stop offset="1" stop-color="#CDCDCD"/>
</radialGradient>
<radialGradient id="paint14_radial_108_318" cx="0" cy="0" r="1" gradientUnits="userSpaceOnUse" gradientTransform="translate(289 464.5) rotate(90) scale(17.5)">
<stop stop-color="#FF961C" stop-opacity="0.5"/>
<stop offset="1" stop-color="#FF961C"/>
</radialGradient>
<radialGradient id="paint15_radial_108_318" cx="0" cy="0" r="1" gradientUnits="userSpaceOnUse" gradientTransform="translate(464 290.5) rotate(90) scale(17.5)">
<stop stop-color="#FF961C" stop-opacity="0.5"/>
<stop offset="1" stop-color="#FF961C"/>
</radialGradient>
<radialGradient id="paint16_radial_108_318" cx="0" cy="0" r="1" gradientUnits="userSpaceOnUse" gradientTransform="translate(413 412.5) rotate(90) scale(17.5)">
<stop stop-color="#CDCDCD" stop-opacity="0.5"/>
<stop offset="1" stop-color="#CDCDCD"/>
</radialGradient>
<radialGradient id="paint17_radial_108_318" cx="0" cy="0" r="1" gradientUnits="userSpaceOnUse" gradientTransform="translate(289 115.5) rotate(90) scale(17.5)">
<stop stop-color="#439AFE" stop-opacity="0.5"/>
<stop offset="1" stop-color="#439AFE"/>
</radialGradient>
<radialGradient id="paint18_radial_108_318" cx="0" cy="0" r="1" gradientUnits="userSpaceOnUse" gradientTransform="translate(289 197.5) rotate(90) scale(17.5)">
<stop stop-color="#00CF5E" stop-opacity="0.5"/>
<stop offset="1" stop-color="#00CF5E"/>
</radialGradient>
<radialGradient id="paint19_radial_108_318" cx="0" cy="0" r="1" gradientUnits="userSpaceOnUse" gradientTransform="translate(413 166.5) rotate(90) scale(17.5)">
<stop stop-color="#CDCDCD" stop-opacity="0.5"/>
<stop offset="1" stop-color="#CDCDCD"/>
</radialGradient>
<radialGradient id="paint20_radial_108_318" cx="0" cy="0" r="1" gradientUnits="userSpaceOnUse" gradientTransform="translate(166 166.5) rotate(90) scale(17.5)">
<stop stop-color="#CDCDCD" stop-opacity="0.5"/>
<stop offset="1" stop-color="#CDCDCD"/>
</radialGradient>
<radialGradient id="paint21_radial_108_318" cx="0" cy="0" r="1" gradientUnits="userSpaceOnUse" gradientTransform="translate(479 100.5) rotate(90) scale(21.5)">
<stop stop-color="#CDCDCD" stop-opacity="0.5"/>
<stop offset="1" stop-color="#CDCDCD"/>
</radialGradient>
<radialGradient id="paint22_radial_108_318" cx="0" cy="0" r="1" gradientUnits="userSpaceOnUse" gradientTransform="translate(479 479.5) rotate(90) scale(21.5)">
<stop stop-color="#CDCDCD" stop-opacity="0.5"/>
<stop offset="1" stop-color="#CDCDCD"/>
</radialGradient>
<radialGradient id="paint23_radial_108_318" cx="0" cy="0" r="1" gradientUnits="userSpaceOnUse" gradientTransform="translate(100 479.5) rotate(90) scale(21.5)">
<stop stop-color="#CDCDCD" stop-opacity="0.5"/>
<stop offset="1" stop-color="#CDCDCD"/>
</radialGradient>
<radialGradient id="paint24_radial_108_318" cx="0" cy="0" r="1" gradientUnits="userSpaceOnUse" gradientTransform="translate(100 100.5) rotate(90) scale(21.5)">
<stop stop-color="#CDCDCD" stop-opacity="0.5"/>
<stop offset="1" stop-color="#CDCDCD"/>
</radialGradient>
<radialGradient id="paint25_radial_108_318" cx="0" cy="0" r="1" gradientUnits="userSpaceOnUse" gradientTransform="translate(289 22.5) rotate(90) scale(21.5)">
<stop stop-color="#B634D5" stop-opacity="0.5"/>
<stop offset="1" stop-color="#B634D5"/>
</radialGradient>
<radialGradient id="paint26_radial_108_318" cx="0" cy="0" r="1" gradientUnits="userSpaceOnUse" gradientTransform="translate(289 557.5) rotate(90) scale(21.5)">
<stop stop-color="#EF0132" stop-opacity="0.5"/>
<stop offset="1" stop-color="#EF0132"/>
</radialGradient>
<radialGradient id="paint27_radial_108_318" cx="0" cy="0" r="1" gradientUnits="userSpaceOnUse" gradientTransform="translate(557 290.5) rotate(90) scale(21.5)">
<stop stop-color="#EF0132" stop-opacity="0.5"/>
<stop offset="1" stop-color="#EF0132"/>
</radialGradient>
<radialGradient id="paint28_radial_108_318" cx="0" cy="0" r="1" gradientUnits="userSpaceOnUse" gradientTransform="translate(22 290.5) rotate(90) scale(21.5)">
<stop stop-color="#B634D5" stop-opacity="0.5"/>
<stop offset="1" stop-color="#B634D5"/>
</radialGradient>
<radialGradient id="paint29_radial_108_318" cx="0" cy="0" r="1" gradientUnits="userSpaceOnUse" gradientTransform="translate(289 290.5) rotate(90) scale(27.5)">
<stop stop-color="#FFEF00" stop-opacity="0.5"/>
<stop offset="1" stop-color="#FFEF00"/>
</radialGradient>
</defs>
</svg>
