<svg width="21" height="20" viewBox="0 0 21 20" fill="none" xmlns="http://www.w3.org/2000/svg">
<path fill-rule="evenodd" clip-rule="evenodd" d="M0 10C0 9.62119 0.131696 9.25789 0.366117 8.99003C0.600537 8.72217 0.918479 8.57169 1.25 8.57169H15.7325L10.365 2.44136C10.1303 2.17317 9.99842 1.80941 9.99842 1.43012C9.99842 1.05083 10.1303 0.687071 10.365 0.418872C10.5997 0.150673 10.9181 0 11.25 0C11.5819 0 11.9003 0.150673 12.135 0.418872L19.635 8.98875C19.7514 9.12143 19.8438 9.27905 19.9068 9.45257C19.9698 9.6261 20.0022 9.81213 20.0022 10C20.0022 10.1879 19.9698 10.3739 19.9068 10.5474C19.8438 10.721 19.7514 10.8786 19.635 11.0112L12.135 19.5811C11.9003 19.8493 11.5819 20 11.25 20C10.9181 20 10.5997 19.8493 10.365 19.5811C10.1303 19.3129 9.99842 18.9492 9.99842 18.5699C9.99842 18.1906 10.1303 17.8268 10.365 17.5586L15.7325 11.4283H1.25C0.918479 11.4283 0.600537 11.2778 0.366117 11.01C0.131696 10.7421 0 10.3788 0 10Z" fill="white"/>
</svg>
