<svg width="19" height="11" viewBox="0 0 19 11" fill="none" xmlns="http://www.w3.org/2000/svg">
<path d="M9.10664 7.00161L7.80593 5.73408L2.22328 0.366579C1.97905 0.131863 1.64779 0 1.30238 0C0.956976 0 0.625717 0.131863 0.381479 0.366579C0.137241 0.601296 3.05176e-05 0.91964 3.05176e-05 1.25158C3.05176e-05 1.58352 0.137241 1.90186 0.381479 2.13658L8.18574 9.63658C8.30656 9.75298 8.4501 9.84534 8.60812 9.90836C8.76615 9.97137 8.93555 10.0038 9.10664 10.0038C9.27773 10.0038 9.44714 9.97137 9.60516 9.90836C9.76319 9.84534 9.90672 9.75298 10.0275 9.63658L17.8318 2.13658C18.076 1.90186 18.2133 1.58352 18.2133 1.25158C18.2133 0.91964 18.076 0.601296 17.8318 0.366579C17.5876 0.131863 17.2563 0 16.9109 0C16.5655 0 16.2342 0.131863 15.99 0.366579L10.4074 5.73408L9.10664 7.00161Z" fill="white"/>
</svg>
