<svg width="19" height="11" viewBox="0 0 19 11" fill="none" xmlns="http://www.w3.org/2000/svg">
<path d="M9.10661 3.00217L10.4073 4.26971L15.99 9.63721C16.2342 9.87192 16.5655 10.0038 16.9109 10.0038C17.2563 10.0038 17.5875 9.87192 17.8318 9.63721C18.076 9.40249 18.2132 9.08414 18.2132 8.7522C18.2132 8.42027 18.076 8.10192 17.8318 7.86721L10.0275 0.367208C9.90669 0.2508 9.76316 0.158444 9.60513 0.0954285C9.44711 0.0324125 9.2777 -2.47955e-05 9.10661 -2.47955e-05C8.93553 -2.47955e-05 8.76612 0.0324125 8.60809 0.0954285C8.45007 0.158444 8.30654 0.2508 8.18571 0.367208L0.381451 7.86721C0.137212 8.10192 0 8.42027 0 8.7522C0 9.08414 0.137212 9.40249 0.381451 9.63721C0.625689 9.87192 0.956948 10.0038 1.30235 10.0038C1.64776 10.0038 1.97902 9.87192 2.22326 9.63721L7.8059 4.26971L9.10661 3.00217Z" fill="white"/>
</svg>
