<svg width="34" height="34" viewBox="0 0 34 34" fill="none" xmlns="http://www.w3.org/2000/svg">
<path d="M18.8877 17.0055L24.6211 11.2855C24.8721 11.0344 25.0132 10.6939 25.0132 10.3388C25.0132 9.98372 24.8721 9.64319 24.6211 9.39212C24.37 9.14105 24.0295 9 23.6744 9C23.3193 9 22.9788 9.14105 22.7277 9.39212L17.0077 15.1255L11.2877 9.39212C11.0367 9.14105 10.6961 9 10.3411 9C9.986 9 9.64547 9.14105 9.3944 9.39212C9.14333 9.64319 9.00228 9.98372 9.00228 10.3388C9.00228 10.6939 9.14333 11.0344 9.3944 11.2855L15.1277 17.0055L9.3944 22.7255C9.26943 22.8494 9.17023 22.9969 9.10254 23.1594C9.03485 23.3218 9 23.4961 9 23.6721C9 23.8481 9.03485 24.0224 9.10254 24.1849C9.17023 24.3474 9.26943 24.4948 9.3944 24.6188C9.51835 24.7438 9.66582 24.843 9.8283 24.9106C9.99077 24.9783 10.165 25.0132 10.3411 25.0132C10.5171 25.0132 10.6914 24.9783 10.8538 24.9106C11.0163 24.843 11.1638 24.7438 11.2877 24.6188L17.0077 18.8855L22.7277 24.6188C22.8517 24.7438 22.9992 24.843 23.1616 24.9106C23.3241 24.9783 23.4984 25.0132 23.6744 25.0132C23.8504 25.0132 24.0247 24.9783 24.1872 24.9106C24.3496 24.843 24.4971 24.7438 24.6211 24.6188C24.746 24.4948 24.8452 24.3474 24.9129 24.1849C24.9806 24.0224 25.0155 23.8481 25.0155 23.6721C25.0155 23.4961 24.9806 23.3218 24.9129 23.1594C24.8452 22.9969 24.746 22.8494 24.6211 22.7255L18.8877 17.0055Z" fill="white"/>
<path d="M29.5999 2.29998C30.1569 2.29998 30.691 2.52123 31.0849 2.91506C31.4787 3.30888 31.6999 3.84303 31.6999 4.39998V29.6C31.6999 30.1569 31.4787 30.6911 31.0849 31.0849C30.691 31.4787 30.1569 31.7 29.5999 31.7H4.39995C3.843 31.7 3.30885 31.4787 2.91503 31.0849C2.5212 30.6911 2.29995 30.1569 2.29995 29.6V4.39998C2.29995 3.84303 2.5212 3.30888 2.91503 2.91506C3.30885 2.52123 3.843 2.29998 4.39995 2.29998H29.5999ZM4.39995 0.199982C3.28604 0.199982 2.21776 0.64248 1.4301 1.43013C0.64245 2.21779 0.199951 3.28607 0.199951 4.39998L0.199951 29.6C0.199951 30.7139 0.64245 31.7822 1.4301 32.5698C2.21776 33.3575 3.28604 33.8 4.39995 33.8H29.5999C30.7139 33.8 31.7821 33.3575 32.5698 32.5698C33.3574 31.7822 33.7999 30.7139 33.7999 29.6V4.39998C33.7999 3.28607 33.3574 2.21779 32.5698 1.43013C31.7821 0.64248 30.7139 0.199982 29.5999 0.199982L4.39995 0.199982Z" fill="white"/>
</svg>
