<svg width="20" height="26" viewBox="0 0 20 26" fill="none" xmlns="http://www.w3.org/2000/svg">
<path fill-rule="evenodd" clip-rule="evenodd" d="M1.25 23H18.75C19.0815 23 19.3995 23.1317 19.6339 23.3661C19.8683 23.6005 20 23.9185 20 24.25C20 24.5815 19.8683 24.8995 19.6339 25.1339C19.3995 25.3683 19.0815 25.5 18.75 25.5H1.25C0.918479 25.5 0.600537 25.3683 0.366117 25.1339C0.131696 24.8995 0 24.5815 0 24.25C0 23.9185 0.131696 23.6005 0.366117 23.3661C0.600537 23.1317 0.918479 23 1.25 23Z" fill="white"/>
<path fill-rule="evenodd" clip-rule="evenodd" d="M9.89339 0C10.2384 0 10.5692 0.131696 10.8131 0.366117C11.0571 0.600537 11.1941 0.918479 11.1941 1.25V15.7325L16.7767 10.365C17.021 10.1303 17.3522 9.99842 17.6976 9.99842C18.0431 9.99842 18.3743 10.1303 18.6185 10.365C18.8628 10.5997 19 10.9181 19 11.25C19 11.5819 18.8628 11.9003 18.6185 12.135L10.8143 19.635C10.6935 19.7514 10.5499 19.8438 10.3919 19.9068C10.2339 19.9698 10.0645 20.0022 9.89339 20.0022C9.7223 20.0022 9.55289 19.9698 9.39487 19.9068C9.23684 19.8438 9.09331 19.7514 8.97248 19.635L1.16822 12.135C0.923985 11.9003 0.786774 11.5819 0.786774 11.25C0.786774 10.9181 0.923985 10.5997 1.16822 10.365C1.41246 10.1303 1.74372 9.99842 2.08912 9.99842C2.43453 9.99842 2.76579 10.1303 3.01003 10.365L8.59268 15.7325L8.59268 1.25C8.59268 0.918479 8.72971 0.600537 8.97364 0.366117C9.21758 0.131696 9.54842 0 9.89339 0Z" fill="white"/>
</svg>
