<svg width="34" height="34" viewBox="0 0 34 34" fill="none" xmlns="http://www.w3.org/2000/svg">
<path fill-rule="evenodd" clip-rule="evenodd" d="M31.0849 2.91503C30.6911 2.5212 30.157 2.29995 29.6 2.29995H4.40001C3.84306 2.29995 3.30891 2.5212 2.91509 2.91503C2.52126 3.30885 2.30001 3.843 2.30001 4.39995V29.6C2.30001 30.1569 2.52126 30.691 2.91509 31.0849C3.30891 31.4787 3.84306 31.6999 4.40001 31.6999H29.6C30.157 31.6999 30.6911 31.4787 31.0849 31.0849C31.4788 30.691 31.7 30.1569 31.7 29.6V4.39995C31.7 3.843 31.4788 3.30885 31.0849 2.91503ZM1.43016 1.4301C2.21782 0.64245 3.2861 0.199951 4.40001 0.199951H29.6C30.7139 0.199951 31.7822 0.64245 32.5699 1.4301C33.3575 2.21776 33.8 3.28604 33.8 4.39995V29.6C33.8 30.7139 33.3575 31.7821 32.5699 32.5698C31.7822 33.3574 30.7139 33.7999 29.6 33.7999H4.40001C3.2861 33.7999 2.21782 33.3574 1.43016 32.5698C0.642511 31.7821 0.200012 30.7139 0.200012 29.6V4.39995C0.200012 3.28604 0.642511 2.21776 1.43016 1.4301Z" fill="url(#paint0_linear_202_539)"/>
<path fill-rule="evenodd" clip-rule="evenodd" d="M11.3431 11.3431C12.8434 9.84286 14.8783 9 17 9C19.1217 9 21.1566 9.84286 22.6569 11.3431C24.1571 12.8434 25 14.8783 25 17C25 19.1217 24.1571 21.1566 22.6569 22.6569C21.1566 24.1571 19.1217 25 17 25C14.8783 25 12.8434 24.1571 11.3431 22.6569C9.84286 21.1566 9 19.1217 9 17C9 14.8783 9.84286 12.8434 11.3431 11.3431ZM13.325 20.6733C14.2997 21.6479 15.6216 22.1955 17 22.1955C18.3784 22.1955 19.7003 21.6479 20.675 20.6733C21.6497 19.6986 22.1972 18.3767 22.1972 16.9983C22.1972 15.6199 21.6497 14.2979 20.675 13.3233C19.7003 12.3486 18.3784 11.801 17 11.801C15.6216 11.801 14.2997 12.3486 13.325 13.3233C12.3503 14.2979 11.8028 15.6199 11.8028 16.9983C11.8028 18.3767 12.3503 19.6986 13.325 20.6733Z" fill="url(#paint1_linear_202_539)"/>
<path fill-rule="evenodd" clip-rule="evenodd" d="M30.3333 5.66675C30.3333 6.77132 29.4379 7.66675 28.3333 7.66675C27.2287 7.66675 26.3333 6.77132 26.3333 5.66675C26.3333 4.56218 27.2287 3.66675 28.3333 3.66675C29.4379 3.66675 30.3333 4.56218 30.3333 5.66675Z" fill="url(#paint2_linear_202_539)"/>
<defs>
<linearGradient id="paint0_linear_202_539" x1="16.3333" y1="-0.999918" x2="-0.333356" y2="34.3334" gradientUnits="userSpaceOnUse">
<stop stop-color="#F2830D"/>
<stop offset="0.244792" stop-color="#EE356A"/>
<stop offset="1" stop-color="#9B33A2"/>
</linearGradient>
<linearGradient id="paint1_linear_202_539" x1="16.3333" y1="-1" x2="-0.33334" y2="34.3333" gradientUnits="userSpaceOnUse">
<stop stop-color="#F2830D"/>
<stop offset="0.244792" stop-color="#EE356A"/>
<stop offset="1" stop-color="#9B33A2"/>
</linearGradient>
<linearGradient id="paint2_linear_202_539" x1="16.3333" y1="-0.999919" x2="-0.333357" y2="34.3334" gradientUnits="userSpaceOnUse">
<stop stop-color="#F2830D"/>
<stop offset="0.244792" stop-color="#EE356A"/>
<stop offset="1" stop-color="#9B33A2"/>
</linearGradient>
</defs>
</svg>
