<svg width="34" height="34" viewBox="0 0 34 34" fill="none" xmlns="http://www.w3.org/2000/svg">
<path fill-rule="evenodd" clip-rule="evenodd" d="M31.0849 2.91506C30.6911 2.52123 30.157 2.29998 29.6 2.29998H4.40001C3.84306 2.29998 3.30891 2.52123 2.91509 2.91506C2.52126 3.30888 2.30001 3.84303 2.30001 4.39998V29.6C2.30001 30.1569 2.52126 30.6911 2.91509 31.0849C3.30891 31.4787 3.84306 31.7 4.40001 31.7H29.6C30.157 31.7 30.6911 31.4787 31.0849 31.0849C31.4788 30.6911 31.7 30.1569 31.7 29.6V4.39998C31.7 3.84303 31.4788 3.30888 31.0849 2.91506ZM1.43016 1.43013C2.21782 0.64248 3.2861 0.199982 4.40001 0.199982H29.6C30.7139 0.199982 31.7822 0.64248 32.5699 1.43013C33.3575 2.21779 33.8 3.28607 33.8 4.39998V29.6C33.8 30.7139 33.3575 31.7822 32.5699 32.5698C31.7822 33.3575 30.7139 33.8 29.6 33.8H4.40001C3.2861 33.8 2.21782 33.3575 1.43016 32.5698C0.642511 31.7822 0.200012 30.7139 0.200012 29.6V4.39998C0.200012 3.28607 0.642511 2.21779 1.43016 1.43013Z" fill="white"/>
<path fill-rule="evenodd" clip-rule="evenodd" d="M11.3431 11.3433C12.8434 9.84298 14.8783 9.00012 17 9.00012C19.1217 9.00012 21.1566 9.84298 22.6569 11.3433C24.1571 12.8436 25 14.8784 25 17.0001C25 19.1219 24.1571 21.1567 22.6569 22.657C21.1566 24.1573 19.1217 25.0001 17 25.0001C14.8783 25.0001 12.8434 24.1573 11.3431 22.657C9.84286 21.1567 9 19.1219 9 17.0001C9 14.8784 9.84286 12.8436 11.3431 11.3433ZM13.325 20.6734C14.2997 21.6481 15.6216 22.1956 17 22.1956C18.3784 22.1956 19.7003 21.6481 20.675 20.6734C21.6497 19.6987 22.1972 18.3768 22.1972 16.9984C22.1972 15.62 21.6497 14.2981 20.675 13.3234C19.7003 12.3487 18.3784 11.8012 17 11.8012C15.6216 11.8012 14.2997 12.3487 13.325 13.3234C12.3503 14.2981 11.8028 15.62 11.8028 16.9984C11.8028 18.3768 12.3503 19.6987 13.325 20.6734Z" fill="white"/>
<path fill-rule="evenodd" clip-rule="evenodd" d="M30.3333 5.66678C30.3333 6.77135 29.4379 7.66678 28.3333 7.66678C27.2287 7.66678 26.3333 6.77135 26.3333 5.66678C26.3333 4.56221 27.2287 3.66678 28.3333 3.66678C29.4379 3.66678 30.3333 4.56221 30.3333 5.66678Z" fill="white"/>
</svg>
