<svg width="34" height="34" viewBox="0 0 34 34" fill="none" xmlns="http://www.w3.org/2000/svg">
<path d="M29.6 2.29998C30.157 2.29998 30.6911 2.52123 31.0849 2.91506C31.4788 3.30888 31.7 3.84303 31.7 4.39998V29.6C31.7 30.1569 31.4788 30.6911 31.0849 31.0849C30.6911 31.4787 30.157 31.7 29.6 31.7H4.40001C3.84306 31.7 3.30891 31.4787 2.91509 31.0849C2.52126 30.6911 2.30001 30.1569 2.30001 29.6V4.39998C2.30001 3.84303 2.52126 3.30888 2.91509 2.91506C3.30891 2.52123 3.84306 2.29998 4.40001 2.29998H29.6ZM4.40001 0.199982C3.2861 0.199982 2.21782 0.64248 1.43016 1.43013C0.642511 2.21779 0.200012 3.28607 0.200012 4.39998L0.200012 29.6C0.200012 30.7139 0.642511 31.7822 1.43016 32.5698C2.21782 33.3575 3.2861 33.8 4.40001 33.8H29.6C30.7139 33.8 31.7822 33.3575 32.5699 32.5698C33.3575 31.7822 33.8 30.7139 33.8 29.6V4.39998C33.8 3.28607 33.3575 2.21779 32.5699 1.43013C31.7822 0.64248 30.7139 0.199982 29.6 0.199982L4.40001 0.199982Z" fill="white"/>
<path d="M7.52631 17H26.4737" stroke="white" stroke-width="2" stroke-linecap="round" stroke-linejoin="round"/>
<path d="M7.52631 10.6842H26.4737" stroke="white" stroke-width="2" stroke-linecap="round" stroke-linejoin="round"/>
<path d="M7.52631 23.3158H26.4737" stroke="white" stroke-width="2" stroke-linecap="round" stroke-linejoin="round"/>
</svg>
