<svg width="34" height="34" viewBox="0 0 34 34" fill="none" xmlns="http://www.w3.org/2000/svg">
<path d="M25.1203 8.35534C25.1203 8.35534 27.0739 7.59352 26.9105 9.44352C26.8567 10.2053 26.3684 12.872 25.9883 15.7559L24.6859 24.2994C24.6859 24.2994 24.5772 25.551 23.6002 25.7687C22.6237 25.9859 21.1583 25.0069 20.8868 24.7892C20.6696 24.6257 16.8167 22.1768 15.46 20.98C15.0798 20.6532 14.6454 20.0005 15.5143 19.2386L21.2121 13.7967C21.8633 13.144 22.5145 11.6204 19.8011 13.4704L12.203 18.6397C12.203 18.6397 11.3346 19.1843 9.70682 18.6945L6.17879 17.6059C6.17879 17.6059 4.87639 16.7897 7.10152 15.9736C12.5288 13.4161 19.2042 10.8042 25.1193 8.35534H25.1203Z" fill="#25A1DD"/>
<path d="M29.6 2.29995C30.157 2.29995 30.6911 2.5212 31.0849 2.91503C31.4788 3.30885 31.7 3.843 31.7 4.39995V29.6C31.7 30.1569 31.4788 30.6911 31.0849 31.0849C30.6911 31.4787 30.157 31.7 29.6 31.7H4.40001C3.84306 31.7 3.30891 31.4787 2.91509 31.0849C2.52126 30.6911 2.30001 30.1569 2.30001 29.6V4.39995C2.30001 3.843 2.52126 3.30885 2.91509 2.91503C3.30891 2.5212 3.84306 2.29995 4.40001 2.29995H29.6ZM4.40001 0.199951C3.2861 0.199951 2.21782 0.64245 1.43016 1.4301C0.642511 2.21776 0.200012 3.28604 0.200012 4.39995L0.200012 29.6C0.200012 30.7139 0.642511 31.7821 1.43016 32.5698C2.21782 33.3575 3.2861 33.8 4.40001 33.8H29.6C30.7139 33.8 31.7822 33.3575 32.5699 32.5698C33.3575 31.7821 33.8 30.7139 33.8 29.6V4.39995C33.8 3.28604 33.3575 2.21776 32.5699 1.4301C31.7822 0.64245 30.7139 0.199951 29.6 0.199951L4.40001 0.199951Z" fill="#25A1DD"/>
</svg>
