<svg width="34" height="34" viewBox="0 0 34 34" fill="none" xmlns="http://www.w3.org/2000/svg">
<path d="M23.0734 16.0067C23.0934 13.52 21.0417 11.24 18.5 10.925L18.3334 10.9C18.2059 10.8747 18.0766 10.8602 17.9467 10.8567C17.425 10.8567 17.2867 11.2334 17.25 11.4584C17.2292 11.5518 17.2274 11.6485 17.2445 11.7426C17.2617 11.8368 17.2976 11.9266 17.35 12.0067C17.5234 12.2484 17.8267 12.29 18.07 12.3267C18.1417 12.3367 18.21 12.345 18.265 12.36C20.55 12.885 21.32 13.7134 21.695 16.0517C21.705 16.11 21.7084 16.18 21.7117 16.255C21.7284 16.5334 21.7634 17.115 22.37 17.115C22.42 17.115 22.4734 17.1117 22.53 17.1017C23.095 17.0134 23.0767 16.4817 23.0684 16.2267C23.0642 16.1651 23.0642 16.1033 23.0684 16.0417C23.0702 16.0307 23.0713 16.0195 23.0717 16.0084L23.0734 16.0067Z" fill="#774E97"/>
<path d="M17.8 10.0116C17.8667 10.0166 17.9333 10.0216 17.985 10.03C21.735 10.6266 23.4617 12.46 23.94 16.3633C23.9483 16.43 23.9483 16.51 23.95 16.5966C23.955 16.9016 23.965 17.535 24.625 17.5483H24.645C24.7356 17.5531 24.8262 17.5385 24.9107 17.5055C24.9952 17.4724 25.0717 17.4217 25.135 17.3566C25.34 17.135 25.3267 16.8066 25.315 16.54C25.3117 16.4766 25.3083 16.415 25.31 16.3616C25.3567 12.37 22.01 8.74998 18.1467 8.61665L18.1 8.61831C18.0851 8.62051 18.0701 8.62162 18.055 8.62165C18.0167 8.62165 17.9683 8.61831 17.9183 8.61498C17.8518 8.6089 17.7851 8.60557 17.7183 8.60498C17.1033 8.60498 16.9867 9.05498 16.9717 9.32498C16.9383 9.94665 17.52 9.99165 17.8 10.0116ZM23.7583 21.4066C23.6781 21.3438 23.5986 21.2799 23.52 21.215C23.11 20.875 22.6733 20.5616 22.2533 20.2583C22.1655 20.1951 22.0777 20.1318 21.99 20.0683C21.45 19.6783 20.965 19.4866 20.5067 19.4866C19.89 19.4866 19.3517 19.84 18.9067 20.535C18.71 20.8416 18.47 20.9916 18.1767 20.9916C17.9719 20.9843 17.7711 20.9326 17.5883 20.84C15.8467 20.0233 14.6017 18.7733 13.89 17.1233C13.5467 16.3233 13.6567 15.8033 14.2633 15.3783C14.6067 15.1383 15.2467 14.69 15.2017 13.8316C15.1517 12.8566 13.0667 9.92331 12.1883 9.58998C11.8137 9.44858 11.4005 9.4474 11.025 9.58665C10.0167 9.93665 9.29168 10.5533 8.93001 11.365C8.58001 12.1516 8.59668 13.0733 8.97668 14.0333C10.0717 16.81 11.61 19.23 13.5533 21.2266C15.4533 23.1816 17.79 24.7817 20.4967 25.985C20.74 26.0933 20.9967 26.1516 21.1833 26.195L21.3417 26.235C21.3634 26.2412 21.3858 26.2446 21.4083 26.245H21.43C22.7033 26.245 24.2317 25.045 24.7017 23.675C25.1133 22.475 24.3617 21.8833 23.7583 21.4083V21.4066ZM18.3633 13.1833C18.1467 13.1883 17.6917 13.2 17.5317 13.6766C17.4583 13.9 17.4667 14.0933 17.5583 14.2516C17.6933 14.485 17.9533 14.5566 18.1883 14.595C19.0417 14.7366 19.4817 15.225 19.5683 16.1283C19.61 16.5516 19.885 16.845 20.2383 16.845C20.2651 16.8455 20.2918 16.8444 20.3183 16.8416C20.7433 16.7883 20.9483 16.4666 20.93 15.8833C20.9367 15.2733 20.6283 14.5833 20.1033 14.0333C19.5767 13.48 18.9417 13.1683 18.3633 13.1833Z" fill="#774E97"/>
<path d="M29.6 2.29995C30.157 2.29995 30.6911 2.5212 31.0849 2.91503C31.4788 3.30885 31.7 3.843 31.7 4.39995V29.5999C31.7 30.1569 31.4788 30.691 31.0849 31.0849C30.6911 31.4787 30.157 31.6999 29.6 31.6999H4.40001C3.84306 31.6999 3.30891 31.4787 2.91509 31.0849C2.52126 30.691 2.30001 30.1569 2.30001 29.5999V4.39995C2.30001 3.843 2.52126 3.30885 2.91509 2.91503C3.30891 2.5212 3.84306 2.29995 4.40001 2.29995H29.6ZM4.40001 0.199951C3.2861 0.199951 2.21782 0.64245 1.43016 1.4301C0.642511 2.21776 0.200012 3.28604 0.200012 4.39995L0.200012 29.5999C0.200012 30.7139 0.642511 31.7821 1.43016 32.5698C2.21782 33.3574 3.2861 33.7999 4.40001 33.7999H29.6C30.7139 33.7999 31.7822 33.3574 32.5699 32.5698C33.3575 31.7821 33.8 30.7139 33.8 29.5999V4.39995C33.8 3.28604 33.3575 2.21776 32.5699 1.4301C31.7822 0.64245 30.7139 0.199951 29.6 0.199951L4.40001 0.199951Z" fill="#774E97"/>
</svg>
